<svg width="10" height="10" viewBox="0 0 10 10" fill="none" xmlns="http://www.w3.org/2000/svg">
<g id="solar:cart-3-outline" clip-path="url(#clip0_540_2281)">
<path id="Vector" d="M3.646 5.41669C3.646 5.33381 3.61307 5.25432 3.55447 5.19572C3.49586 5.13711 3.41638 5.10419 3.3335 5.10419C3.25062 5.10419 3.17113 5.13711 3.11253 5.19572C3.05392 5.25432 3.021 5.33381 3.021 5.41669V7.08335C3.021 7.16623 3.05392 7.24572 3.11253 7.30432C3.17113 7.36293 3.25062 7.39585 3.3335 7.39585C3.41638 7.39585 3.49586 7.36293 3.55447 7.30432C3.61307 7.24572 3.646 7.16623 3.646 7.08335V5.41669ZM6.66683 5.10419C6.74971 5.10419 6.8292 5.13711 6.8878 5.19572C6.94641 5.25432 6.97933 5.33381 6.97933 5.41669V7.08335C6.97933 7.16623 6.94641 7.24572 6.8878 7.30432C6.8292 7.36293 6.74971 7.39585 6.66683 7.39585C6.58395 7.39585 6.50446 7.36293 6.44586 7.30432C6.38725 7.24572 6.35433 7.16623 6.35433 7.08335V5.41669C6.35433 5.33381 6.38725 5.25432 6.44586 5.19572C6.50446 5.13711 6.58395 5.10419 6.66683 5.10419ZM5.31266 5.41669C5.31266 5.33381 5.27974 5.25432 5.22113 5.19572C5.16253 5.13711 5.08304 5.10419 5.00016 5.10419C4.91728 5.10419 4.8378 5.13711 4.77919 5.19572C4.72059 5.25432 4.68766 5.33381 4.68766 5.41669V7.08335C4.68766 7.16623 4.72059 7.24572 4.77919 7.30432C4.8378 7.36293 4.91728 7.39585 5.00016 7.39585C5.08304 7.39585 5.16253 7.36293 5.22113 7.30432C5.27974 7.24572 5.31266 7.16623 5.31266 7.08335V5.41669Z" fill="#0FA958"/>
<path id="Vector_2" fill-rule="evenodd" clip-rule="evenodd" d="M7.19735 1.44708C6.99901 1.36958 6.77693 1.35667 6.49235 1.35458C6.43324 1.22978 6.33992 1.12433 6.22323 1.05049C6.10653 0.976652 5.97127 0.93747 5.83318 0.9375H4.16651C4.02847 0.937432 3.89324 0.976553 3.77655 1.05031C3.65986 1.12407 3.56651 1.22944 3.50735 1.35417C3.22235 1.35667 3.00068 1.36958 2.80235 1.44708C2.56559 1.5397 2.35968 1.69709 2.20818 1.90125C2.05526 2.10667 1.98318 2.37083 1.88485 2.73375L1.62318 3.69333C1.45911 3.77579 1.31538 3.89362 1.20235 4.03833C0.943181 4.37042 0.897348 4.76583 0.943598 5.21917C0.988181 5.65917 1.12693 6.21333 1.30026 6.90667L1.3111 6.95125C1.4211 7.38958 1.50985 7.74583 1.61568 8.02375C1.7261 8.31375 1.86651 8.55125 2.09735 8.73167C2.3286 8.91208 2.59318 8.99 2.9011 9.0275C3.1961 9.0625 3.5636 9.0625 4.01568 9.0625H5.98401C6.4361 9.0625 6.80318 9.0625 7.0986 9.02708C7.40693 8.99042 7.6711 8.91208 7.90193 8.73125C8.13318 8.55125 8.27318 8.31375 8.3836 8.02375C8.48985 7.74583 8.5786 7.38958 8.68818 6.95083L8.69943 6.90708C8.87276 6.21333 9.0111 5.65917 9.0561 5.21958C9.10193 4.76542 9.0561 4.37042 8.79693 4.03833C8.68402 3.89367 8.54043 3.77584 8.37651 3.69333L8.11485 2.73375C8.0161 2.37083 7.94402 2.10667 7.79151 1.90083C7.63996 1.69683 7.43406 1.53958 7.19735 1.44708ZM3.02985 2.02917C3.12151 1.99333 3.23235 1.98292 3.50776 1.98C3.62526 2.22583 3.8761 2.39583 4.1661 2.39583H5.83276C6.1236 2.39583 6.37443 2.22583 6.49193 1.98C6.76735 1.98292 6.87818 1.99333 6.96985 2.02917C7.09735 2.07917 7.20818 2.16375 7.28985 2.27375C7.36318 2.3725 7.4061 2.51042 7.52735 2.955L7.67485 3.49542C7.24235 3.4375 6.68401 3.4375 5.99026 3.4375H4.00901C3.31568 3.4375 2.75735 3.4375 2.32485 3.49542L2.47235 2.955C2.59318 2.51042 2.63651 2.3725 2.70985 2.27375C2.79144 2.1638 2.90233 2.07903 3.02985 2.02917ZM4.16651 1.5625C4.13889 1.5625 4.11239 1.57347 4.09286 1.59301C4.07332 1.61254 4.06235 1.63904 4.06235 1.66667C4.06235 1.69429 4.07332 1.72079 4.09286 1.74032C4.11239 1.75986 4.13889 1.77083 4.16651 1.77083H5.83318C5.86081 1.77083 5.8873 1.75986 5.90684 1.74032C5.92637 1.72079 5.93735 1.69429 5.93735 1.66667C5.93735 1.63904 5.92637 1.61254 5.90684 1.59301C5.8873 1.57347 5.86081 1.5625 5.83318 1.5625H4.16651ZM1.69526 4.42292C1.81151 4.27417 1.99526 4.17417 2.37443 4.11917C2.76235 4.06333 3.28818 4.0625 4.03526 4.0625H5.96443C6.71151 4.0625 7.23693 4.06333 7.62485 4.11917C8.00443 4.17417 8.18818 4.27417 8.30443 4.42333C8.42068 4.57208 8.47318 4.77417 8.43401 5.15583C8.39443 5.54583 8.26777 6.05583 8.08651 6.78083C7.9711 7.2425 7.89068 7.5625 7.79985 7.80167C7.71151 8.0325 7.62526 8.15458 7.51735 8.23917C7.40943 8.32333 7.26985 8.37708 7.02443 8.40667C6.77026 8.43708 6.4411 8.4375 5.96443 8.4375H4.03526C3.5586 8.4375 3.22901 8.43708 2.97526 8.40667C2.72943 8.3775 2.59026 8.32333 2.48235 8.23917C2.37401 8.15458 2.28776 8.0325 2.19985 7.80167C2.10901 7.5625 2.0286 7.2425 1.91276 6.78083C1.73193 6.05583 1.60485 5.54583 1.56526 5.15583C1.52651 4.77417 1.57901 4.57167 1.69526 4.42292Z" fill="#0FA958"/>
</g>
<defs>
<clipPath id="clip0_540_2281">
<rect width="10" height="10" fill="white"/>
</clipPath>
</defs>
</svg>
