<svg width="23" height="23" viewBox="0 0 23 23" fill="none" xmlns="http://www.w3.org/2000/svg">
<g id="ep:menu">
<path id="Vector" d="M3.59375 10.0625C3.40313 10.0625 3.22031 9.9868 3.08552 9.85201C2.95073 9.71722 2.875 9.5344 2.875 9.34378V3.59521C2.875 3.40459 2.95073 3.22177 3.08552 3.08698C3.22031 2.95219 3.40313 2.87646 3.59375 2.87646H9.34375C9.53437 2.87646 9.71719 2.95219 9.85198 3.08698C9.98677 3.22177 10.0625 3.40459 10.0625 3.59521V9.34378C10.0625 9.5344 9.98677 9.71722 9.85198 9.85201C9.71719 9.9868 9.53437 10.0625 9.34375 10.0625H3.59375ZM13.6562 10.0625C13.4656 10.0625 13.2828 9.9868 13.148 9.85201C13.0132 9.71722 12.9375 9.5344 12.9375 9.34378V3.59521C12.9375 3.40459 13.0132 3.22177 13.148 3.08698C13.2828 2.95219 13.4656 2.87646 13.6562 2.87646H19.4048C19.5954 2.87646 19.7783 2.95219 19.913 3.08698C20.0478 3.22177 20.1236 3.40459 20.1236 3.59521V9.34378C20.1236 9.5344 20.0478 9.71722 19.913 9.85201C19.7783 9.9868 19.5954 10.0625 19.4048 10.0625H13.6562ZM3.59375 20.125C3.40313 20.125 3.22031 20.0493 3.08552 19.9145C2.95073 19.7797 2.875 19.5969 2.875 19.4063V13.6563C2.875 13.4657 2.95073 13.2828 3.08552 13.148C3.22031 13.0133 3.40313 12.9375 3.59375 12.9375H9.34375C9.53437 12.9375 9.71719 13.0133 9.85198 13.148C9.98677 13.2828 10.0625 13.4657 10.0625 13.6563V19.4063C10.0625 19.5969 9.98677 19.7797 9.85198 19.9145C9.71719 20.0493 9.53437 20.125 9.34375 20.125H3.59375ZM13.6562 20.125C13.4656 20.125 13.2828 20.0493 13.148 19.9145C13.0132 19.7797 12.9375 19.5969 12.9375 19.4063V13.6563C12.9375 13.4657 13.0132 13.2828 13.148 13.148C13.2828 13.0133 13.4656 12.9375 13.6562 12.9375H19.4048C19.5954 12.9375 19.7783 13.0133 19.913 13.148C20.0478 13.2828 20.1236 13.4657 20.1236 13.6563V19.4063C20.1236 19.5969 20.0478 19.7797 19.913 19.9145C19.7783 20.0493 19.5954 20.125 19.4048 20.125H13.6562Z" fill="#FDAB21"/>
</g>
</svg>
